<svg width="240" height="190" viewBox="0 0 337 220" fill="none" xmlns="http://www.w3.org/2000/svg">
<path d="M0.5 0.5V19C0.5 35.0163 13.4837 48 29.5 48H279H295.647C312.283 48 321.455 66.9569 310.72 79.6655C288.433 106.05 257.64 139.89 243.5 143.5C225.801 148.019 96.919 145.731 34.3722 144.326C15.7983 143.909 0.5 158.836 0.5 177.414V195.5V0.5Z" fill="white"/>
<path d="M12.264 108V74.4H24.984C27.704 74.4 29.944 74.864 31.704 75.792C33.496 76.72 34.824 77.968 35.688 79.536C36.584 81.072 37.032 82.8 37.032 84.72C37.032 86.512 36.6 88.192 35.736 89.76C34.904 91.328 33.592 92.592 31.8 93.552C30.008 94.48 27.72 94.944 24.936 94.944H18.984V108H12.264ZM29.64 108L22.776 93.264H30.072L37.32 108H29.64ZM18.984 90.048H24.6C26.488 90.048 27.88 89.584 28.776 88.656C29.704 87.728 30.168 86.496 30.168 84.96C30.168 83.456 29.72 82.256 28.824 81.36C27.928 80.464 26.504 80.016 24.552 80.016H18.984V90.048ZM52.8008 108.576C50.3688 108.576 48.2088 108.064 46.3208 107.04C44.4648 105.984 43.0088 104.528 41.9528 102.672C40.8968 100.784 40.3688 98.608 40.3688 96.144C40.3688 93.648 40.8808 91.44 41.9048 89.52C42.9608 87.568 44.4168 86.032 46.2728 84.912C48.1608 83.792 50.3528 83.232 52.8488 83.232C55.2488 83.232 57.3448 83.76 59.1368 84.816C60.9608 85.872 62.3688 87.296 63.3608 89.088C64.3848 90.88 64.8968 92.944 64.8968 95.28C64.8968 95.6 64.8808 95.952 64.8488 96.336C64.8488 96.72 64.8168 97.136 64.7528 97.584H45.1688V93.504H58.0808C57.9848 92.032 57.4408 90.864 56.4488 90C55.4888 89.104 54.2888 88.656 52.8488 88.656C51.7608 88.656 50.7688 88.912 49.8728 89.424C48.9768 89.936 48.2728 90.688 47.7608 91.68C47.2488 92.672 46.9928 93.936 46.9928 95.472V96.864C46.9928 98.112 47.2328 99.216 47.7128 100.176C48.1928 101.104 48.8648 101.824 49.7288 102.336C50.5928 102.848 51.6008 103.104 52.7528 103.104C53.9048 103.104 54.8488 102.864 55.5848 102.384C56.3528 101.904 56.9288 101.28 57.3128 100.512H64.1768C63.7288 102.016 62.9608 103.376 61.8728 104.592C60.8168 105.808 59.5208 106.784 57.9848 107.52C56.4488 108.224 54.7208 108.576 52.8008 108.576ZM78.3593 108.576C76.3753 108.576 74.7113 108.256 73.3672 107.616C72.0553 106.944 71.0793 106.064 70.4393 104.976C69.8313 103.856 69.5273 102.624 69.5273 101.28C69.5273 99.84 69.8953 98.56 70.6313 97.44C71.3673 96.32 72.5033 95.44 74.0393 94.8C75.5753 94.16 77.4953 93.84 79.7993 93.84H85.7513C85.7513 92.688 85.5913 91.744 85.2713 91.008C84.9833 90.24 84.5033 89.664 83.8313 89.28C83.1913 88.896 82.3273 88.704 81.2393 88.704C80.0553 88.704 79.0473 88.96 78.2153 89.472C77.4153 89.984 76.9193 90.752 76.7273 91.776H70.1992C70.3913 90.048 70.9673 88.56 71.9273 87.312C72.8873 86.032 74.1673 85.04 75.7673 84.336C77.3993 83.6 79.2393 83.232 81.2873 83.232C83.5593 83.232 85.5273 83.616 87.1913 84.384C88.8873 85.152 90.1833 86.256 91.0793 87.696C92.0073 89.136 92.4713 90.912 92.4713 93.024V108H86.8073L86.0393 104.352C85.7193 104.992 85.3033 105.568 84.7913 106.08C84.3113 106.592 83.7513 107.04 83.1113 107.424C82.4713 107.776 81.7513 108.048 80.9513 108.24C80.1833 108.464 79.3193 108.576 78.3593 108.576ZM79.9913 103.392C80.7913 103.392 81.5113 103.264 82.1513 103.008C82.7913 102.72 83.3353 102.32 83.7833 101.808C84.2313 101.296 84.5993 100.72 84.8873 100.08C85.1753 99.408 85.3673 98.688 85.4633 97.92V97.872H80.6153C79.6873 97.872 78.9193 98 78.3113 98.256C77.7353 98.48 77.3033 98.816 77.0153 99.264C76.7273 99.68 76.5833 100.16 76.5833 100.704C76.5833 101.28 76.7273 101.776 77.0153 102.192C77.3033 102.608 77.7033 102.912 78.2153 103.104C78.7273 103.296 79.3193 103.392 79.9913 103.392ZM109.264 108.576C107.056 108.576 105.088 108.032 103.36 106.944C101.632 105.856 100.256 104.352 99.2318 102.432C98.2398 100.512 97.7438 98.352 97.7438 95.952C97.7438 93.488 98.2398 91.312 99.2318 89.424C100.256 87.504 101.648 86 103.408 84.912C105.2 83.792 107.2 83.232 109.408 83.232C111.136 83.232 112.64 83.552 113.92 84.192C115.2 84.8 116.24 85.68 117.04 86.832V73.44H123.76V108H117.76L117.04 104.736C116.56 105.408 115.968 106.048 115.264 106.656C114.56 107.232 113.712 107.696 112.72 108.048C111.728 108.4 110.576 108.576 109.264 108.576ZM110.896 102.72C112.144 102.72 113.248 102.432 114.208 101.856C115.168 101.28 115.904 100.48 116.416 99.456C116.96 98.432 117.232 97.248 117.232 95.904C117.232 94.56 116.96 93.376 116.416 92.352C115.904 91.328 115.168 90.528 114.208 89.952C113.248 89.376 112.144 89.088 110.896 89.088C109.68 89.088 108.592 89.376 107.632 89.952C106.672 90.528 105.92 91.328 105.376 92.352C104.864 93.376 104.608 94.544 104.608 95.856C104.608 97.2 104.864 98.4 105.376 99.456C105.92 100.48 106.672 101.28 107.632 101.856C108.592 102.432 109.68 102.72 110.896 102.72ZM141.215 108V83.808H147.119L147.647 87.024C148.415 85.872 149.423 84.96 150.671 84.288C151.951 83.584 153.423 83.232 155.087 83.232C156.271 83.232 157.343 83.392 158.303 83.712C159.263 84.032 160.111 84.496 160.847 85.104C161.615 85.712 162.239 86.464 162.719 87.36C163.647 86.08 164.831 85.072 166.271 84.336C167.711 83.6 169.279 83.232 170.975 83.232C173.087 83.232 174.847 83.664 176.255 84.528C177.663 85.36 178.719 86.592 179.423 88.224C180.159 89.824 180.527 91.792 180.527 94.128V108H173.855V94.704C173.855 92.848 173.487 91.424 172.751 90.432C172.015 89.408 170.879 88.896 169.343 88.896C168.319 88.896 167.423 89.152 166.655 89.664C165.887 90.144 165.279 90.848 164.831 91.776C164.415 92.704 164.207 93.824 164.207 95.136V108H157.535V94.704C157.535 92.848 157.167 91.424 156.431 90.432C155.695 89.408 154.527 88.896 152.927 88.896C151.967 88.896 151.103 89.152 150.335 89.664C149.567 90.144 148.975 90.848 148.559 91.776C148.143 92.704 147.935 93.824 147.935 95.136V108H141.215ZM198.109 108.576C195.805 108.576 193.725 108.048 191.869 106.992C190.013 105.904 188.541 104.4 187.453 102.48C186.397 100.56 185.869 98.384 185.869 95.952C185.869 93.456 186.397 91.248 187.453 89.328C188.541 87.408 190.013 85.92 191.869 84.864C193.725 83.776 195.821 83.232 198.157 83.232C200.493 83.232 202.589 83.776 204.445 84.864C206.301 85.92 207.757 87.408 208.813 89.328C209.901 91.216 210.445 93.408 210.445 95.904C210.445 98.4 209.901 100.608 208.813 102.528C207.725 104.416 206.253 105.904 204.397 106.992C202.573 108.048 200.477 108.576 198.109 108.576ZM198.109 102.768C199.165 102.768 200.093 102.512 200.893 102C201.693 101.488 202.333 100.72 202.813 99.696C203.325 98.672 203.581 97.408 203.581 95.904C203.581 94.4 203.341 93.136 202.861 92.112C202.381 91.088 201.725 90.32 200.893 89.808C200.093 89.296 199.181 89.04 198.157 89.04C197.165 89.04 196.253 89.296 195.421 89.808C194.589 90.32 193.933 91.088 193.453 92.112C192.973 93.136 192.733 94.4 192.733 95.904C192.733 97.408 192.973 98.672 193.453 99.696C193.933 100.72 194.573 101.488 195.373 102C196.205 102.512 197.117 102.768 198.109 102.768ZM216.027 108V83.808H221.979L222.603 88.272C223.211 87.216 223.947 86.32 224.811 85.584C225.675 84.848 226.683 84.272 227.835 83.856C228.987 83.44 230.235 83.232 231.579 83.232V90.336H229.323C228.363 90.336 227.467 90.448 226.635 90.672C225.835 90.896 225.131 91.264 224.523 91.776C223.947 92.256 223.499 92.928 223.179 93.792C222.891 94.624 222.747 95.68 222.747 96.96V108H216.027ZM247.238 108.576C244.806 108.576 242.646 108.064 240.758 107.04C238.902 105.984 237.446 104.528 236.39 102.672C235.334 100.784 234.806 98.608 234.806 96.144C234.806 93.648 235.318 91.44 236.342 89.52C237.398 87.568 238.854 86.032 240.71 84.912C242.598 83.792 244.79 83.232 247.286 83.232C249.686 83.232 251.782 83.76 253.574 84.816C255.398 85.872 256.806 87.296 257.798 89.088C258.822 90.88 259.334 92.944 259.334 95.28C259.334 95.6 259.318 95.952 259.286 96.336C259.286 96.72 259.254 97.136 259.19 97.584H239.606V93.504H252.518C252.422 92.032 251.878 90.864 250.886 90C249.926 89.104 248.726 88.656 247.286 88.656C246.198 88.656 245.206 88.912 244.31 89.424C243.414 89.936 242.71 90.688 242.198 91.68C241.686 92.672 241.43 93.936 241.43 95.472V96.864C241.43 98.112 241.67 99.216 242.15 100.176C242.63 101.104 243.302 101.824 244.166 102.336C245.03 102.848 246.038 103.104 247.19 103.104C248.342 103.104 249.286 102.864 250.022 102.384C250.79 101.904 251.366 101.28 251.75 100.512H258.614C258.166 102.016 257.398 103.376 256.31 104.592C255.254 105.808 253.958 106.784 252.422 107.52C250.886 108.224 249.158 108.576 247.238 108.576Z" fill="url(#paint0_linear_20_3)"/>
<defs>
<linearGradient id="paint0_linear_20_3" x1="12" y1="80.0761" x2="256.655" y2="103.28" gradientUnits="userSpaceOnUse">
<stop stop-color="#13036F"/>
<stop offset="1" stop-color="#6068FF"/>
</linearGradient>
</defs>
</svg>
